<svg id="logo" data-name="Layer 1" xmlns="http://www.w3.org/2000/svg" viewBox="0 0 526.78 65.97"><defs><style>.cls-1{fill:#f2f2f2;}</style></defs><g id="a"><path class="cls-1" d="M162.59,44.34a4.58,4.58,0,0,1,1.6.29,5.79,5.79,0,0,1,1.54.94l.84-2a4.78,4.78,0,0,0-1.77-1.09,6.72,6.72,0,0,0-2.26-.39,6,6,0,0,0-3.15.81,5.33,5.33,0,0,0-2,2.28,8.87,8.87,0,0,0,0,7,5.45,5.45,0,0,0,2,2.33,5.88,5.88,0,0,0,3.15.75,6.72,6.72,0,0,0,2.26-.39,4.78,4.78,0,0,0,1.77-1.09l-.84-2a5.75,5.75,0,0,1-1.54.93,4.36,4.36,0,0,1-1.6.29,2.92,2.92,0,0,1-2.44-1.12,5.24,5.24,0,0,1-.85-3.24,5.17,5.17,0,0,1,.85-3.22A2.91,2.91,0,0,1,162.59,44.34Zm13.29,3.75a3.88,3.88,0,0,0-1.49-1.62,5,5,0,0,0-4.62,0,3.82,3.82,0,0,0-1.54,1.62,6,6,0,0,0,0,5,3.9,3.9,0,0,0,1.54,1.63h0a5,5,0,0,0,4.62,0,3.91,3.91,0,0,0,1.49-1.63,6,6,0,0,0,0-5Zm-2,2.51c0,1.73-.63,2.59-1.87,2.59s-1.86-.86-1.86-2.59S170.78,48,172,48a1.59,1.59,0,0,1,1.37.64,3.17,3.17,0,0,1,.49,1.94Zm16.4-3.73a4.8,4.8,0,0,1,.69,2.86v5.42h-2.59V49.82a2.41,2.41,0,0,0-.26-1.32,1,1,0,0,0-.88-.4,1.32,1.32,0,0,0-1.13.54,2.56,2.56,0,0,0-.41,1.54v5h-2.55V49.82a2.41,2.41,0,0,0-.26-1.32,1,1,0,0,0-.89-.4,1.32,1.32,0,0,0-1.13.54,2.62,2.62,0,0,0-.4,1.54v5h-2.55v-9h2.48v1.25a2.75,2.75,0,0,1,1-1.06A3,3,0,0,1,182.9,46a2.41,2.41,0,0,1,2.49,1.63,3.14,3.14,0,0,1,1.11-1.18,3,3,0,0,1,1.6-.45A2.42,2.42,0,0,1,190.29,46.87Zm12.84-.94a2.45,2.45,0,0,1,2.1.94,4.8,4.8,0,0,1,.69,2.86v5.42h-2.53V49.82a2.41,2.41,0,0,0-.26-1.32,1,1,0,0,0-.89-.4,1.32,1.32,0,0,0-1.13.54,2.62,2.62,0,0,0-.4,1.54v5h-2.55V49.82a2.61,2.61,0,0,0-.26-1.32,1,1,0,0,0-.89-.4,1.32,1.32,0,0,0-1.13.54,2.62,2.62,0,0,0-.4,1.54v5h-2.55v-9h2.46v1.25a2.62,2.62,0,0,1,1-1.06,3,3,0,0,1,1.49-.37,2.39,2.39,0,0,1,2.51,1.6,3.22,3.22,0,0,1,1.11-1.15,3,3,0,0,1,1.6-.45Zm4.6-4.1h2.73v2.65h-2.73Zm.11,4.39h2.55v9h-2.58Zm8.83,3.63a3.67,3.67,0,0,1,1.87,1,2.38,2.38,0,0,1,.58,1.71,2.44,2.44,0,0,1-1,2,4.11,4.11,0,0,1-2.63.74,7.32,7.32,0,0,1-2.08-.25,5.18,5.18,0,0,1-1.65-.81l.68-1.91a5.49,5.49,0,0,0,1.48.77,5.09,5.09,0,0,0,1.64.28,1.65,1.65,0,0,0,.92-.22.63.63,0,0,0,.33-.57.65.65,0,0,0-.23-.52,2.22,2.22,0,0,0-.85-.33l-1.37-.32a3.38,3.38,0,0,1-1.76-.9,2.4,2.4,0,0,1-.57-1.68,2.51,2.51,0,0,1,.45-1.48,3,3,0,0,1,1.26-1,4.62,4.62,0,0,1,1.87-.37,5.43,5.43,0,0,1,3.26,1.12L218.19,49a4.35,4.35,0,0,0-2.6-1,1.78,1.78,0,0,0-.93.22.73.73,0,0,0-.33.63.53.53,0,0,0,.2.45,2.07,2.07,0,0,0,.71.32l1.4.34Zm8.24,0a3.62,3.62,0,0,1,1.85.95,2.38,2.38,0,0,1,.58,1.71,2.44,2.44,0,0,1-1,2,4.16,4.16,0,0,1-2.66.82,7.41,7.41,0,0,1-2.1-.24,5.18,5.18,0,0,1-1.65-.81l.68-1.91a5.49,5.49,0,0,0,1.48.77,5.09,5.09,0,0,0,1.64.28,1.65,1.65,0,0,0,.92-.22.63.63,0,0,0,.33-.57.65.65,0,0,0-.23-.52,2.22,2.22,0,0,0-.85-.33l-1.35-.33a3.38,3.38,0,0,1-1.76-.9,2.4,2.4,0,0,1-.57-1.68,2.51,2.51,0,0,1,.45-1.48,3,3,0,0,1,1.26-1,4.62,4.62,0,0,1,1.87-.37,5.43,5.43,0,0,1,3.26,1.12L226.43,49a4.35,4.35,0,0,0-2.6-1,1.78,1.78,0,0,0-.93.22.73.73,0,0,0-.33.63.53.53,0,0,0,.2.45,2.07,2.07,0,0,0,.71.32l1.4.34Zm3.77-8h2.73v2.66h-2.73Zm.11,4.4h2.6v9h-2.63Zm12.3,1.86a3.82,3.82,0,0,0-1.54-1.62,5,5,0,0,0-4.62,0,3.82,3.82,0,0,0-1.54,1.62,6,6,0,0,0,0,5,3.91,3.91,0,0,0,1.51,1.71h0a5,5,0,0,0,4.62,0,3.9,3.9,0,0,0,1.54-1.63,6,6,0,0,0,0-5Zm-2,2.51c0,1.73-.65,2.59-1.89,2.59s-1.86-.86-1.86-2.59.62-2.57,1.86-2.5a1.61,1.61,0,0,1,1.38.64,3.23,3.23,0,0,1,.48,1.94Zm11.52-3.72a4.71,4.71,0,0,1,.73,2.85v5.42h-2.58v-5.3a2.3,2.3,0,0,0-.31-1.33,1.14,1.14,0,0,0-1-.42,1.62,1.62,0,0,0-1.28.54,2.12,2.12,0,0,0-.48,1.47v5h-2.55v-9h2.48v1.28a3,3,0,0,1,1.14-1.11,3.22,3.22,0,0,1,1.58-.39A2.62,2.62,0,0,1,250.66,46.88Zm10,3.62a5.06,5.06,0,0,0-1-3.34,3.41,3.41,0,0,0-2.76-1.23,3.83,3.83,0,0,0-2.11.6,4,4,0,0,0-1.45,1.66,5.37,5.37,0,0,0-.52,2.43A4.71,4.71,0,0,0,254.07,54a4.31,4.31,0,0,0,3.3,1.25,5.43,5.43,0,0,0,1.74-.29,4.43,4.43,0,0,0,1.48-.8l-.68-1.85a3.84,3.84,0,0,1-1.15.65,3.71,3.71,0,0,1-1.28.22,2.22,2.22,0,0,1-1.51-.48,2.43,2.43,0,0,1-.65-1.57h5.4Zm-5.38-.7a2.65,2.65,0,0,1,.53-1.46,1.5,1.5,0,0,1,1.16-.5,1.38,1.38,0,0,1,1.12.49,2.48,2.48,0,0,1,.45,1.47ZM268,46l.15,2.2-1.43.17a2.11,2.11,0,0,0-1.5.65,2.18,2.18,0,0,0-.44,1.44v4.69h-2.55v-9h2.45v1.52A2.75,2.75,0,0,1,267.29,46Zm5.25,3.85a3.62,3.62,0,0,1,1.85.95,2.38,2.38,0,0,1,.58,1.71,2.44,2.44,0,0,1-.95,2,4.11,4.11,0,0,1-2.63.74A7.41,7.41,0,0,1,270,55a5.32,5.32,0,0,1-1.64-.8l.68-1.91a5.55,5.55,0,0,0,1.49.77,5,5,0,0,0,1.63.28,1.65,1.65,0,0,0,.92-.22.69.69,0,0,0,.22-.95.76.76,0,0,0-.11-.14,2.37,2.37,0,0,0-.86-.33L271,51.37a3.38,3.38,0,0,1-1.76-.9,2.4,2.4,0,0,1-.57-1.68,2.51,2.51,0,0,1,.45-1.48,2.9,2.9,0,0,1,1.27-1,4.58,4.58,0,0,1,1.86-.37,5.43,5.43,0,0,1,3.26,1.12l-.68,1.83a4.35,4.35,0,0,0-2.6-1,1.74,1.74,0,0,0-.92.22.7.7,0,0,0-.34.63.56.56,0,0,0,.2.45,2.16,2.16,0,0,0,.71.32l1.4.34Zm13.54-5.71a2.33,2.33,0,0,0-1.33.39,1.52,1.52,0,0,0-.4,1.19v.43h2.08v2.07h-2.08v6.93h-2.55V48.22H281V46.15h1.57a3.86,3.86,0,0,1,1-2.86,4.51,4.51,0,0,1,3-1.09l.93-.06.15,2h-.8Zm9.15,4a3.8,3.8,0,0,0-1.58-1.62,5,5,0,0,0-4.62,0,3.82,3.82,0,0,0-1.54,1.62,6,6,0,0,0,0,5,3.9,3.9,0,0,0,1.54,1.63h0a5,5,0,0,0,4.62,0A4,4,0,0,0,296,53.14a6,6,0,0,0,0-5Zm-2,2.51c0,1.73-.6,2.64-1.84,2.64s-1.86-.86-1.86-2.59.62-2.58,1.86-2.58a1.63,1.63,0,0,1,1.37.64,3.23,3.23,0,0,1,.48,1.94Zm9.86-4.6.15,2.2-1.43.17a2.11,2.11,0,0,0-1.5.65,2.18,2.18,0,0,0-.44,1.44v4.69h-2.55v-9h2.45v1.52A2.75,2.75,0,0,1,303.09,46Zm16.46-.81a5.26,5.26,0,0,0-2-2.3,6.31,6.31,0,0,0-6.16,0,5.44,5.44,0,0,0-2,2.3,9,9,0,0,0,0,7,5.34,5.34,0,0,0,2,2.31,6.26,6.26,0,0,0,6.16,0,5.34,5.34,0,0,0,2-2.31,9,9,0,0,0,0-7ZM317.53,52a3.05,3.05,0,0,1-.44.44h0a3,3,0,0,1-4.22-.44,5.5,5.5,0,0,1-.85-3.28,5.39,5.39,0,0,1,.84-3.27,3.33,3.33,0,0,1,.46-.46h0a3,3,0,0,1,4.22.46,5.33,5.33,0,0,1,.85,3.27A5.42,5.42,0,0,1,317.53,52Zm11.71-5.11a3.53,3.53,0,0,0-2.75-1,7.41,7.41,0,0,0-3.68,1.12l.67,1.85a6.12,6.12,0,0,1,1.42-.66,4.41,4.41,0,0,1,1.35-.24,1.57,1.57,0,0,1,1.12.33,1.61,1.61,0,0,1,.32,1.14v.33h-.44a11.62,11.62,0,0,0-2.82.26,2.76,2.76,0,0,0-1.5.82,2.41,2.41,0,0,0-.46,1.56A2.79,2.79,0,0,0,324,54.93a3.14,3.14,0,0,0,1.53.36,2.49,2.49,0,0,0,1.38-.39,2.26,2.26,0,0,0,.84-1.09V55.2h2.42V49.89a4.21,4.21,0,0,0-.89-3Zm-1.54,4.56a2.09,2.09,0,0,1-.46,1.4h0a1.48,1.48,0,0,1-1.22.58,1,1,0,0,1-.78-.33,1.13,1.13,0,0,1-.32-.82.88.88,0,0,1,.55-.87,5.66,5.66,0,0,1,1.92-.23h.3Zm7.48.2c0,1.07.46,1.61,1.38,1.56h.82l-.13,2a6.73,6.73,0,0,1-1,.07,3.71,3.71,0,0,1-2.76-.89,3.76,3.76,0,0,1-.87-2.73V48.22h-1.57V46.15h1.57V43.51h2.55v2.64h2.08v2.07h-2.08v3.43Zm8.56-5.72a2.62,2.62,0,0,1,2.23,1,4.7,4.7,0,0,1,.72,2.85v5.42h-2.55v-5.3a2.22,2.22,0,0,0-.31-1.33,1.14,1.14,0,0,0-1-.42,1.62,1.62,0,0,0-1.27.54,2.13,2.13,0,0,0-.49,1.47v5h-2.54V42.23h2.54v5.11a3.08,3.08,0,0,1,1.13-1.05,3.14,3.14,0,0,1,1.53-.36ZM353,49.84a3.6,3.6,0,0,1,1.83.95,2.7,2.7,0,0,1-.37,3.75,4.08,4.08,0,0,1-2.62.74,7.09,7.09,0,0,1-2.1-.28,5.18,5.18,0,0,1-1.65-.81l.68-1.91a5.49,5.49,0,0,0,1.48.77,5.09,5.09,0,0,0,1.64.28,1.74,1.74,0,0,0,.92-.22.63.63,0,0,0,.33-.57.65.65,0,0,0-.23-.52,2.39,2.39,0,0,0-.85-.33l-1.35-.33a3.41,3.41,0,0,1-1.77-.9,2.44,2.44,0,0,1-.56-1.68,2.51,2.51,0,0,1,.45-1.48,2.88,2.88,0,0,1,1.26-1,4.62,4.62,0,0,1,1.87-.37,5.18,5.18,0,0,1,1.74.3,4.82,4.82,0,0,1,1.51.82l-.67,1.83a4.35,4.35,0,0,0-2.6-1,1.78,1.78,0,0,0-.93.22.77.77,0,0,0-.34.63.53.53,0,0,0,.21.45,2.07,2.07,0,0,0,.71.32l1.4.34Zm17.29,2.3a10.32,10.32,0,0,0,1.33-4.88h-2.11a8.7,8.7,0,0,1-.74,3.25l-2-2.19a5,5,0,0,0,1.63-1.48,3.24,3.24,0,0,0,.51-1.79,2.81,2.81,0,0,0-.84-2.14,3.18,3.18,0,0,0-2.28-.8,4,4,0,0,0-1.81.4,2.76,2.76,0,0,0-1.22,1.12,3.18,3.18,0,0,0-.43,1.65,3.36,3.36,0,0,0,.29,1.36,5.72,5.72,0,0,0,.87,1.36,5.37,5.37,0,0,0-1.8,1.65,3.83,3.83,0,0,0-.57,2.06,3.37,3.37,0,0,0,.54,1.87,3.58,3.58,0,0,0,1.5,1.28,5.35,5.35,0,0,0,5.78-1l1.18,1.28h3l-2.84-3Zm-5.68-6.85a1.35,1.35,0,0,1,.33-1,1.17,1.17,0,0,1,.87-.32,1,1,0,0,1,.77.33,1.24,1.24,0,0,1,.3.86,1.47,1.47,0,0,1-.32.92,3.94,3.94,0,0,1-1.08.87,5.59,5.59,0,0,1-.69-.91,1.64,1.64,0,0,1-.19-.75Zm2.92,7.06a3.12,3.12,0,0,1-2.09.84,1.92,1.92,0,0,1-1.34-.45,1.6,1.6,0,0,1-.5-1.24,2.46,2.46,0,0,1,1.2-2.09l2.72,2.94ZM386,42.23h2.46V55.15h-2l-5.92-8.23v8.23h-2.45V42.23H380l5.93,8.19Zm10.89,4.27a5,5,0,0,0-4.63,0,3.86,3.86,0,0,0-1.53,1.62,6,6,0,0,0,0,5,4,4,0,0,0,1.53,1.63h0a5,5,0,0,0,4.63,0,4,4,0,0,0,1.53-1.63,6,6,0,0,0,0-5A3.86,3.86,0,0,0,396.86,46.5Zm-.42,4.1c0,1.73-.63,2.59-1.86,2.59s-1.85-.87-1.85-2.59.62-2.58,1.85-2.58a1.62,1.62,0,0,1,1.38.64,3.23,3.23,0,0,1,.48,1.94Zm7.19,1c0,1.07.46,1.61,1.38,1.56h.83l-.13,2a6.73,6.73,0,0,1-1,.07,3.71,3.71,0,0,1-2.76-.89,3.76,3.76,0,0,1-.87-2.73V48.22h-1.57V46.15h1.57V43.51h2.55v2.64h2.07v2.07h-2.07v3.43Zm7-5.72a7.41,7.41,0,0,0-3.68,1.12l.68,1.85a6.12,6.12,0,0,1,1.42-.66,4.41,4.41,0,0,1,1.35-.24,1.47,1.47,0,0,1,1.12.33,1.61,1.61,0,0,1,.32,1.14v.33h-.44a11.52,11.52,0,0,0-2.81.29,2.73,2.73,0,0,0-1.49.82,2.41,2.41,0,0,0-.46,1.56,2.71,2.71,0,0,0,1.47,2.46,3.25,3.25,0,0,0,1.53.36A2.41,2.41,0,0,0,411,54.9a2.09,2.09,0,0,0,.85-1.09V55.2h2.41V49.89a4.21,4.21,0,0,0-.88-3A3.58,3.58,0,0,0,410.62,45.93Zm1.22,5.52a2.14,2.14,0,0,1-.45,1.4h0a1.52,1.52,0,0,1-1.2.58,1,1,0,0,1-.79-.33,1.14,1.14,0,0,1-.31-.82.87.87,0,0,1,.55-.87,5.36,5.36,0,0,1,1.91-.23h.29ZM422,46l.15,2.2-1.43.17a2.11,2.11,0,0,0-1.5.65,2.18,2.18,0,0,0-.44,1.44v4.69h-2.55v-9h2.45V47.7a2.73,2.73,0,0,1,2.58-1.7Zm1,.18h2.55v9H423Zm-.09-4.35h2.74v2.61h-2.74Zm12,8.63a5.06,5.06,0,0,0-1-3.34,3.41,3.41,0,0,0-2.76-1.23,3.83,3.83,0,0,0-2.11.6,4,4,0,0,0-1.45,1.66,5.37,5.37,0,0,0-.52,2.43A4.71,4.71,0,0,0,428.27,54a4.29,4.29,0,0,0,3.24,1.32,5.44,5.44,0,0,0,1.75-.29,4.43,4.43,0,0,0,1.48-.8l-.68-1.85a3.84,3.84,0,0,1-1.15.65,3.71,3.71,0,0,1-1.28.22,2.22,2.22,0,0,1-1.51-.48,2.43,2.43,0,0,1-.65-1.57h5.4Zm-5.43-.63a2.65,2.65,0,0,1,.53-1.46,1.5,1.5,0,0,1,1.16-.5,1.38,1.38,0,0,1,1.12.49,2.48,2.48,0,0,1,.45,1.47Zm11.37,0a3.65,3.65,0,0,1,1.8.94,2.49,2.49,0,0,1,.58,1.71,2.42,2.42,0,0,1-1,2,4.08,4.08,0,0,1-2.62.74,7.41,7.41,0,0,1-2.1-.24,5.18,5.18,0,0,1-1.65-.81l.68-1.91A5.49,5.49,0,0,0,438,53a5.09,5.09,0,0,0,1.64.28,1.74,1.74,0,0,0,.92-.22.63.63,0,0,0,.33-.57.65.65,0,0,0-.23-.52,2.22,2.22,0,0,0-.85-.33l-1.35-.33a3.38,3.38,0,0,1-1.76-.9,2.4,2.4,0,0,1-.57-1.68,2.51,2.51,0,0,1,.45-1.48,2.88,2.88,0,0,1,1.26-1,4.62,4.62,0,0,1,1.87-.37A5.43,5.43,0,0,1,443,47l-.64,1.83a4.35,4.35,0,0,0-2.6-1,1.78,1.78,0,0,0-.93.22.77.77,0,0,0-.34.63.53.53,0,0,0,.21.45,2.07,2.07,0,0,0,.71.32l1.4.34Zm17.22-6.54a4.14,4.14,0,0,0-3-1.09h-5.47v13h2.58V50.35H455a4.14,4.14,0,0,0,3-1.06,4,4,0,0,0,1.08-3,3.92,3.92,0,0,0-1.08-3Zm-1.34,3c0,1.23-.68,1.85-2.05,1.86h-2.48V44.42h2.5a2.11,2.11,0,0,1,1.49.46,1.87,1.87,0,0,1,.49,1.41Zm9.23-.13h2.48v9H466V53.87a2.75,2.75,0,0,1-1,1.06,3.23,3.23,0,0,1-3.76-.58,4.51,4.51,0,0,1-.77-2.85V46.15H463v5.42a1.92,1.92,0,0,0,.31,1.19,1.17,1.17,0,0,0,1,.38,1.5,1.5,0,0,0,1.2-.55,2.15,2.15,0,0,0,.47-1.44Zm12.82,2a3.74,3.74,0,0,0-1.3-1.62,3.25,3.25,0,0,0-1.94-.52,3,3,0,0,0-1.53.38,2.62,2.62,0,0,0-1.06,1V42.23h-2.55v13h2.51V53.84A2.65,2.65,0,0,0,474,54.93a3.34,3.34,0,0,0,3.46-.2,3.94,3.94,0,0,0,1.3-1.67,6.82,6.82,0,0,0,0-4.91Zm-2.07,2.45a3.33,3.33,0,0,1-.54,2h0a1.62,1.62,0,0,1-.32.32,1.75,1.75,0,0,1-2.45-.32,3.23,3.23,0,0,1-.49-1.92,3.14,3.14,0,0,1,.49-1.89,1.72,1.72,0,0,1,.27-.27,1.79,1.79,0,0,1,2.5.27,3.13,3.13,0,0,1,.49,1.88Zm4-8.34h2.55v13h-2.55Zm4.42-.4h2.74v2.61h-2.74Zm.14,4.35h2.5v9h-2.55Zm8.81,1.88a1.88,1.88,0,0,0-1.6.67,2.86,2.86,0,0,0-.54,1.9,2.93,2.93,0,0,0,.54,1.92,1.94,1.94,0,0,0,1.55.65,3.18,3.18,0,0,0,1.14-.23,3.57,3.57,0,0,0,1.07-.65l.67,1.91a3.88,3.88,0,0,1-1.41.8,5.43,5.43,0,0,1-1.83.29,4.19,4.19,0,0,1-3.19-1.24,4.78,4.78,0,0,1-1.16-3.39,5.21,5.21,0,0,1,.56-2.48,3.93,3.93,0,0,1,1.57-1.66,4.55,4.55,0,0,1,2.34-.59,5,5,0,0,1,1.76.31,3.62,3.62,0,0,1,1.36.81L496.26,49a3.57,3.57,0,0,0-1.07-.65,3,3,0,0,0-1.14-.23ZM169.8,33.48a8.42,8.42,0,0,0,3.51-3.65,12.52,12.52,0,0,0,1.2-5.68,12.09,12.09,0,0,0-1.22-5.67,8.43,8.43,0,0,0-3.51-3.63,11.25,11.25,0,0,0-5.49-1.26H156.7V34.74h7.59A11.35,11.35,0,0,0,169.8,33.48ZM161,31V17.41h3q6.24,0,6.23,6.78T164,31Zm20.66,3.74h-3.8V13.59h3.41l6.28,12.93,6.33-12.93h3.35V34.74h-3.83V22.2l-4.49,9.06h-2.77l-4.48-8.94Zm28-11,9.44,11H214L205.48,25v9.75h-4.32V13.59h4.32v9.3l8.19-9.3h5.1Zm31,11h-13V13.59H232V30.93h8.72Zm6.53-4.68h9.08l1.86,4.68h4.26l-9-21.15H250l-9,21.15h4.35Zm4.54-11.46,3.13,7.92H248.6Zm31.81,16.14h-3.46l-4.52-14-4.57,14h-3.46l-6.92-21.15H265l4.46,14.61,4.74-14.61h3l4.57,14.76,4.64-14.76h4.1Zm32.06,0h4.31l-9-21.15h-3.46l-9,21.15h4.35l1.86-4.68h9.08Zm-9.53-8.22,3.13-7.92,3.13,7.92Zm33.23-2.37a12.09,12.09,0,0,0-1.22-5.67,8.43,8.43,0,0,0-3.51-3.63,11.25,11.25,0,0,0-5.49-1.26h-7.59V34.74h7.62a11.35,11.35,0,0,0,5.51-1.26,8.42,8.42,0,0,0,3.51-3.65,12.52,12.52,0,0,0,1.2-5.68Zm-4.29,0q0,6.81-6.2,6.81h-3V17.37h3q6.22,0,6.23,6.78Zm21.38-10.64h4.38L352,34.7h-3.46l-8.84-21.15h4.52l6.09,15.33ZM379,29.89a13.25,13.25,0,0,0,1.19-5.75,13.32,13.32,0,0,0-1.16-5.74,8.7,8.7,0,0,0-3.31-3.77,10.34,10.34,0,0,0-10.11,0,8.7,8.7,0,0,0-3.31,3.77,13.32,13.32,0,0,0-1.16,5.74,13.32,13.32,0,0,0,1.16,5.74,8.73,8.73,0,0,0,3.31,3.78,10.19,10.19,0,0,0,10.11,0,8.73,8.73,0,0,0,3.31-3.78Zm-3.13-5.74a8.81,8.81,0,0,1-1.37,5.36,4.87,4.87,0,0,1-7.66,0,8.93,8.93,0,0,1-1.38-5.37,8.79,8.79,0,0,1,1.37-5.35,4.8,4.8,0,0,1,.78-.78h0a4.91,4.91,0,0,1,6.9.78,8.73,8.73,0,0,1,1.39,5.35Zm22,5.1,1.38,3.33a7.7,7.7,0,0,1-2.9,1.78,11,11,0,0,1-3.72.65,9.68,9.68,0,0,1-5.2-1.35,8.84,8.84,0,0,1-3.38-3.81,13.19,13.19,0,0,1-1.18-5.7,13.19,13.19,0,0,1,1.18-5.7,8.74,8.74,0,0,1,3.38-3.79,9.74,9.74,0,0,1,5.16-1.34,10.68,10.68,0,0,1,3.75.68,7.7,7.7,0,0,1,2.9,1.78l-1.38,3.33a9.24,9.24,0,0,0-2.52-1.56,7.32,7.32,0,0,0-2.62-.48,4.73,4.73,0,0,0-4,1.8,8.44,8.44,0,0,0-1.4,5.28,8.47,8.47,0,0,0,1.4,5.29,4.71,4.71,0,0,0,4,1.82,7.32,7.32,0,0,0,2.62-.48A9.34,9.34,0,0,0,397.92,29.25Zm23.27,5.53-9-21.15h-3.46l-9,21.15h4.35l1.86-4.68H415l1.86,4.68Zm-13.8-8.26,3.13-7.88,3.13,7.92Zm11.29-12.93h16.53V17.4h-6.12V34.74h-4.32V17.44h-6.12Zm32.26,21.15H437.51V13.59H451v3.63h-9.25v5h8.67V25.8h-8.7v5.35h9.22Zm16-10a4.86,4.86,0,0,1,1.63,3.9,5.72,5.72,0,0,1-2.14,4.72A9.17,9.17,0,0,1,460.52,35a14,14,0,0,1-4.27-.64,9.72,9.72,0,0,1-3.4-1.78l1.38-3.33a10.26,10.26,0,0,0,6.35,2.13,5.12,5.12,0,0,0,2.81-.65,2,2,0,0,0,1-1.73,1.8,1.8,0,0,0-.9-1.62,11.36,11.36,0,0,0-3.2-1.11,16.58,16.58,0,0,1-4.11-1.38,5.5,5.5,0,0,1-2.25-2,5.61,5.61,0,0,1-.7-2.92,6.21,6.21,0,0,1,1-3.42A6.77,6.77,0,0,1,457,14.2a9.35,9.35,0,0,1,4.1-.86,12.38,12.38,0,0,1,4,.66,8.16,8.16,0,0,1,3.07,1.84l-1.39,3.33A9,9,0,0,0,461.06,17a4.47,4.47,0,0,0-2.66.71,2.26,2.26,0,0,0-1,1.93,1.82,1.82,0,0,0,.37,1.19,3,3,0,0,0,1.25.82,17.59,17.59,0,0,0,2.47.75,13.15,13.15,0,0,1,5.42,2.31Zm25.49,10h-13V13.59h4.28V30.93h8.72Zm6.86-3.81H508v3.81H495V13.59h4.32Zm25.39-15.6a6.8,6.8,0,0,0-5-1.74h-9v21.2H515v-8h4.65a6.8,6.8,0,0,0,5-1.74,6.51,6.51,0,0,0,1.78-4.86A6.52,6.52,0,0,0,524.64,15.33Zm-2.38,4.92q0,3-3.23,3h-4.1V17.19H519a3.47,3.47,0,0,1,2.44.75,3,3,0,0,1,.8,2.31ZM139.85,0h1.54V66h-1.56ZM125,10c-8.16,7.85-15.9,15.38-23.73,23l23.65,23c-4.25,0-7.94,0-11.63-.06-.59,0-1.23-.69-1.73-1.19-5-5-10.09-9.93-15-15-1.7-1.77-3.42-2.83-5.91-2.46a15.1,15.1,0,0,1-2.33,0V29a1.62,1.62,0,0,1,.45-.19c4.29.83,7-1.49,9.7-4.41,4.31-4.6,8.82-8.93,13.31-13.32A3.63,3.63,0,0,1,114,10C117.39,9.89,120.81,10,125,10ZM85.19,13c.2,14.26.12,28.47.12,43H77V30l-.42-.17a9.42,9.42,0,0,0-.9,1.18c-4.28,7.51-8.61,15-12.87,22.57-1,1.78-2.26,3.15-4.34,3.15s-3.2-1.3-4.2-3c-2.28-4-18.42-31.37-18.59-31.64a9.36,9.36,0,0,0-4-2.82,12.28,12.28,0,0,0-3.94-.74c-5-.09-9.89-.09-14.89-.09H9.18V47.59H11.4c5.55,0,11.11.13,16.65-.07a11.47,11.47,0,0,0,3.62-.71C35.6,45.33,38,41.68,38,37V32.09l7.19,12.19a17.14,17.14,0,0,1-5.12,7.4,18,18,0,0,1-8.36,4,18.83,18.83,0,0,1-3.09.32C20.84,56.1,13,56,5.2,56,2,56,.39,54.42.39,51.16V15.45C.39,11.4,1.86,10,6,10H27a23.54,23.54,0,0,1,5.73.65A17.75,17.75,0,0,1,44,19L57.24,42c.32.61.68,1.15,1.21,2,.88-1.46,1.66-2.72,2.4-4q7.84-13.65,15.7-27.35a13.83,13.83,0,0,1,1.32-2,3.82,3.82,0,0,1,4.74-1C83.78,10.24,85.19,11.84,85.19,13Z"/></g></svg>