<?xml version="1.0" encoding="utf-8"?>
<!-- Generator: Adobe Illustrator 24.1.1, SVG Export Plug-In . SVG Version: 6.00 Build 0)  -->
<svg version="1.1" id="Layer_1" xmlns="http://www.w3.org/2000/svg" xmlns:xlink="http://www.w3.org/1999/xlink" x="0px" y="0px"
	 viewBox="0 0 526.78 65.97" style="enable-background:new 0 0 526.78 65.97;" xml:space="preserve">
<text transform="matrix(0.9213 0 0 1 155.402 55.1484)" style="fill:#7F1416; font-family:'NunitoSans-ExtraBold'; font-size:18.3202px;">Commissioners for Oaths &amp; Notaries Public</text>
<text transform="matrix(0.9235 0 0 1 154.3746 34.7358)" style="fill:#212C62; font-family:'NunitoSans-ExtraBold'; font-size:29.9904px;">DMK LAW ADVOCATES LLP</text>
<rect x="139.44" style="fill:#212C62;" width="1.54" height="65.97"/>
<g>
	<path style="fill:#7F1416;" d="M100.83,32.99c7.81,7.59,15.52,15.08,23.65,22.98c-4.25,0-7.94,0.05-11.63-0.06
		c-0.59-0.02-1.23-0.69-1.73-1.19c-5.02-4.99-10.09-9.93-14.99-15.04c-1.7-1.77-3.42-2.83-5.91-2.46c-0.71,0.11-1.45,0.02-2.33,0.02
		c0-2.85,0-5.57,0-8.27c0.2-0.09,0.34-0.21,0.45-0.19c4.29,0.83,7-1.49,9.7-4.41c4.26-4.6,8.82-8.93,13.31-13.32
		c0.56-0.55,1.45-1.04,2.21-1.06c3.42-0.11,6.86-0.05,10.95-0.05C116.4,17.85,108.66,25.38,100.83,32.99z"/>
	<g>
		<path style="fill:#212C62;" d="M36.7,24.34c-0.71-1.18-1.21-2.01-1.39-2.27l1.49,2.52C36.77,24.5,36.74,24.42,36.7,24.34z"/>
		<path style="fill:#212C62;" d="M84.8,13.04c-0.01-1.16-1.41-2.76-2.58-3.35c-1.54-0.78-3.44-0.51-4.74,1.03
			c-0.51,0.61-0.92,1.31-1.32,2C70.92,21.81,65.7,30.9,60.46,39.98c-0.74,1.28-1.52,2.54-2.4,4.01c-0.53-0.85-0.89-1.39-1.21-1.95
			c-4.42-7.67-8.84-15.35-13.26-23.02l0,0l0,0c-2.4-4.17-6.31-7.08-11.24-8.35c-1.78-0.46-3.7-0.7-5.73-0.71
			c-7.02-0.02-14.03-0.01-21.05,0c-4.1,0-5.56,1.44-5.57,5.49c-0.01,5.83,0,11.67,0,17.5c0,6.05-0.03,12.1,0.01,18.16
			c0.02,3.31,1.57,4.87,4.8,4.88c7.82,0.02,15.64,0.1,23.46-0.05c1.05-0.02,2.08-0.13,3.09-0.32c3.14-0.59,6.01-1.96,8.36-3.95
			c2.3-1.94,4.08-4.46,5.12-7.4l-7.19-12.18c0,1.63,0.01,3.27,0,4.9c-0.02,4.68-2.44,8.33-6.37,9.81c-1.1,0.41-2.3,0.66-3.62,0.71
			c-5.54,0.2-11.1,0.06-16.65,0.07c-0.65,0-1.3,0-2.22,0c0-9.78,0-19.3,0-29.15c1.24,0,2.45,0,3.66,0
			c4.96,0.02,9.93-0.04,14.89,0.09c1.44,0.04,2.76,0.3,3.94,0.74c1.63,0.6,2.99,1.57,4.03,2.82c0.17,0.27,16.31,27.61,18.59,31.64
			c0.96,1.7,2.12,3.02,4.2,3.01c2.14-0.01,3.35-1.37,4.34-3.15c4.23-7.56,8.54-15.07,12.84-22.6c0.24-0.43,0.59-0.79,0.9-1.18
			c0.14,0.06,0.28,0.12,0.42,0.17c0,8.64,0,17.28,0,25.95c2.82,0,5.44,0,8.32,0C84.91,41.46,84.98,27.25,84.8,13.04z"/>
	</g>
</g>
</svg>
