<?xml version="1.0" encoding="utf-8"?>
<!-- Generator: Adobe Illustrator 24.1.1, SVG Export Plug-In . SVG Version: 6.00 Build 0)  -->
<svg version="1.1" id="Layer_1" xmlns="http://www.w3.org/2000/svg" xmlns:xlink="http://www.w3.org/1999/xlink" x="0px" y="0px"
	 viewBox="0 0 59.26 59.26" style="enable-background:new 0 0 59.26 59.26;" xml:space="preserve">
<circle style="fill:#F1F2F2;" cx="29.63" cy="29.63" r="29.63"/>
<g>
	<path style="fill:#7F1416;" d="M45.42,29.64c3.01,2.92,5.98,5.81,9.12,8.86c-1.64,0-3.06,0.02-4.48-0.02
		c-0.23-0.01-0.48-0.27-0.67-0.46c-1.94-1.92-3.89-3.83-5.78-5.8c-0.65-0.68-1.32-1.09-2.28-0.95c-0.27,0.04-0.56,0.01-0.9,0.01
		c0-1.1,0-2.15,0-3.19c0.08-0.03,0.13-0.08,0.17-0.07c1.65,0.32,2.7-0.57,3.74-1.7c1.64-1.77,3.4-3.44,5.13-5.13
		c0.22-0.21,0.56-0.4,0.85-0.41c1.32-0.04,2.64-0.02,4.22-0.02C51.42,23.8,48.44,26.7,45.42,29.64z"/>
	<g>
		<path style="fill:#212C62;" d="M20.7,26.3c-0.27-0.45-0.47-0.77-0.53-0.88l0.57,0.97C20.73,26.37,20.71,26.33,20.7,26.3z"/>
		<path style="fill:#212C62;" d="M39.24,21.95c-0.01-0.45-0.54-1.06-0.99-1.29c-0.59-0.3-1.33-0.2-1.83,0.4
			c-0.2,0.24-0.36,0.51-0.51,0.77c-2.02,3.5-4.03,7.01-6.05,10.51c-0.28,0.49-0.59,0.98-0.92,1.54c-0.2-0.33-0.34-0.54-0.47-0.75
			c-1.7-2.96-3.41-5.92-5.11-8.88l0,0l0,0c-0.93-1.61-2.43-2.73-4.33-3.22c-0.69-0.18-1.43-0.27-2.21-0.27c-2.71-0.01-5.41,0-8.12,0
			c-1.58,0-2.14,0.55-2.15,2.11c0,2.25,0,4.5,0,6.75c0,2.33-0.01,4.67,0,7c0.01,1.27,0.6,1.88,1.85,1.88
			c3.02,0.01,6.03,0.04,9.04-0.02c0.4-0.01,0.8-0.05,1.19-0.12c1.21-0.23,2.32-0.76,3.22-1.52c0.89-0.75,1.57-1.72,1.97-2.85
			l-2.77-4.7c0,0.63,0,1.26,0,1.89c-0.01,1.81-0.94,3.21-2.46,3.78c-0.42,0.16-0.89,0.26-1.39,0.27c-2.14,0.08-4.28,0.02-6.42,0.03
			c-0.25,0-0.5,0-0.86,0c0-3.77,0-7.44,0-11.24c0.48,0,0.94,0,1.41,0c1.91,0.01,3.83-0.02,5.74,0.03c0.56,0.01,1.06,0.11,1.52,0.28
			c0.63,0.23,1.15,0.6,1.55,1.09c0.07,0.1,6.29,10.64,7.16,12.2c0.37,0.65,0.82,1.16,1.62,1.16c0.83-0.01,1.29-0.53,1.67-1.21
			c1.63-2.91,3.29-5.81,4.95-8.71c0.09-0.16,0.23-0.3,0.35-0.46c0.05,0.02,0.11,0.04,0.16,0.07c0,3.33,0,6.66,0,10
			c1.09,0,2.1,0,3.21,0C39.29,32.9,39.31,27.43,39.24,21.95z"/>
	</g>
</g>
</svg>
