<?xml version="1.0" encoding="utf-8"?>
<!-- Generator: Adobe Illustrator 24.1.1, SVG Export Plug-In . SVG Version: 6.00 Build 0)  -->
<svg version="1.1" id="Layer_1" xmlns="http://www.w3.org/2000/svg" xmlns:xlink="http://www.w3.org/1999/xlink" x="0px" y="0px"
	 viewBox="0 0 501 272.54" style="enable-background:new 0 0 501 272.54;" xml:space="preserve">
<text transform="matrix(0.9213 0 0 1 8.2175 265.8507)" style="fill:#7F1416; font-family:'NunitoSans-ExtraBold'; font-size:24.3089px;">Commissioners for Oaths &amp; Notaries Public</text>
<text transform="matrix(0.9235 0 0 1 6.8542 238.7657)" style="fill:#212C62; font-family:'NunitoSans-ExtraBold'; font-size:39.7938px;">DMK LAW ADVOCATES LLP</text>
<g>
	<path style="fill:#7F1416;" d="M401.55,94.51c31.09,30.21,61.81,60.07,94.19,91.53c-16.93,0-31.62,0.22-46.3-0.22
		c-2.36-0.07-4.92-2.76-6.89-4.72c-20-19.86-40.18-39.56-59.69-59.9c-6.76-7.05-13.61-11.29-23.53-9.79
		c-2.83,0.43-5.78,0.07-9.29,0.07c0-11.35,0-22.18,0-32.92c0.78-0.35,1.34-0.84,1.78-0.75c17.09,3.3,27.87-5.92,38.62-17.55
		c16.96-18.33,35.11-35.56,52.99-53.03c2.23-2.18,5.78-4.14,8.79-4.24c13.64-0.45,27.3-0.2,43.62-0.2
		C463.52,34.22,432.73,64.17,401.55,94.51z"/>
	<g>
		<path style="fill:#212C62;" d="M146.16,60.04c-2.83-4.69-4.83-7.99-5.52-9.05l5.91,10.02C146.42,60.69,146.3,60.36,146.16,60.04z"
			/>
		<path style="fill:#212C62;" d="M337.69,15.04c-0.06-4.64-5.63-10.99-10.27-13.35c-6.13-3.12-13.71-2.04-18.87,4.12
			c-2.04,2.43-3.68,5.22-5.27,7.97c-20.85,36.17-41.65,72.38-62.5,108.56c-2.94,5.11-6.06,10.12-9.55,15.95
			c-2.11-3.4-3.53-5.55-4.82-7.78c-17.6-30.56-35.19-61.13-52.79-91.69l-0.02,0.01l-0.02,0c-9.57-16.6-25.14-28.21-44.76-33.24
			c-7.1-1.82-14.73-2.79-22.8-2.81C78.09,2.72,50.15,2.77,22.2,2.77C5.88,2.78,0.05,8.51,0.04,24.62c-0.03,23.23-0.01,46.46,0,69.69
			c0.01,24.1-0.11,48.2,0.05,72.3c0.09,13.17,6.23,19.4,19.11,19.43c31.15,0.08,62.3,0.41,93.43-0.22c4.18-0.08,8.3-0.52,12.3-1.27
			c12.49-2.34,23.94-7.82,33.29-15.72c9.14-7.72,16.27-17.76,20.37-29.45l-28.64-48.51c0.01,6.5,0.02,13.01,0,19.51
			c-0.07,18.65-9.71,33.17-25.37,39.05c-4.37,1.64-9.18,2.65-14.41,2.84c-22.08,0.8-44.21,0.23-66.32,0.26c-2.6,0-5.2,0-8.85,0
			c0-38.93,0-76.85,0-116.08c4.92,0,9.75-0.02,14.59,0c19.76,0.08,39.53-0.16,59.28,0.36c5.75,0.15,10.99,1.18,15.7,2.93
			c6.49,2.41,11.92,6.23,16.06,11.24c0.69,1.06,64.94,109.94,74.01,125.98c3.83,6.77,8.46,12.03,16.71,11.98
			c8.54-0.06,13.33-5.44,17.3-12.53c16.86-30.1,34.02-60.03,51.12-89.99c0.97-1.69,2.37-3.14,3.57-4.7
			c0.56,0.23,1.12,0.46,1.68,0.69c0,34.41,0,68.82,0,103.32c11.24,0,21.65,0,33.12,0C338.15,128.22,338.39,71.62,337.69,15.04z"/>
	</g>
</g>
</svg>
